<svg width="96" height="96" viewBox="0 0 96 96" fill="none" xmlns="http://www.w3.org/2000/svg">
<path d="M48 65.1429C46.6577 65.1434 45.3447 64.75 44.2239 64.0113C43.1031 63.2726 42.2237 62.2212 41.6949 60.9875C40.5886 60.7262 39.4996 60.3965 38.4343 60.0001L38.376 59.9795C35.2477 58.8053 32.3603 57.0693 29.856 54.8572C26.5008 51.8974 23.9205 48.1617 22.3403 43.9759C20.76 39.7901 20.2277 35.2812 20.7898 30.8425C21.3518 26.4038 22.9912 22.1699 25.5649 18.5101C28.1387 14.8503 31.5686 11.8757 35.5557 9.84559C39.5428 7.8155 43.966 6.79159 48.4396 6.86313C52.9132 6.93467 57.3014 8.09949 61.2216 10.256C65.1417 12.4126 68.4748 15.4954 70.9302 19.2356C73.3856 22.9758 74.8887 27.2599 75.3086 31.7144C75.4423 33.1304 74.28 34.2858 72.8571 34.2858C71.4377 34.2858 70.3029 33.1304 70.1383 31.7178C69.685 27.8205 68.2109 24.1119 65.8649 20.967C63.5189 17.8221 60.3842 15.3523 56.7777 13.8072C53.1711 12.2621 49.2206 11.6966 45.3254 12.1678C41.4303 12.639 37.7286 14.1302 34.5945 16.4906C31.4604 18.8511 29.005 21.9971 27.4766 25.6107C25.9481 29.2244 25.4008 33.1774 25.8899 37.0704C26.379 40.9633 27.8872 44.6582 30.2621 47.7814C32.6369 50.9046 35.7943 53.3454 39.4149 54.8572L39.552 54.9155C40.2377 55.1966 40.9417 55.4446 41.664 55.6595C42.3245 54.0502 43.5719 52.7521 45.1536 52.0281C46.7353 51.304 48.5331 51.2082 50.1828 51.76C51.8325 52.3118 53.2108 53.47 54.0386 54.9999C54.8664 56.5299 55.0818 58.3173 54.6412 60.0001C54.261 61.4723 53.4024 62.7764 52.2002 63.7074C50.998 64.6383 49.5205 65.1433 48 65.1429ZM24 60.0001H28.008C26.0911 58.506 24.3456 56.8042 22.8034 54.9258C20.2996 55.2191 17.9907 56.4216 16.3151 58.3052C14.6395 60.1887 13.714 62.622 13.7143 65.1429V67.5944C13.7143 80.3418 28.1486 89.1429 48 89.1429C67.8514 89.1429 82.2857 79.8583 82.2857 67.5944V65.1429C82.2857 62.415 81.202 59.7988 79.2731 57.8698C77.3442 55.9409 74.7279 54.8572 72 54.8572H59.5029C59.9998 56.5239 60.1285 58.2787 59.88 60.0001H72L72.4971 60.0241C73.7691 60.1476 74.9495 60.7403 75.8083 61.6866C76.6671 62.6329 77.1429 63.865 77.1429 65.1429V67.5944L77.1257 68.1463C76.6457 76.7863 64.8891 84.0001 48 84.0001C30.4766 84.0001 18.8572 76.7624 18.8572 67.5944V65.1429L18.8812 64.6458C19.0047 63.3738 19.5973 62.1935 20.5436 61.3346C21.4899 60.4758 22.7221 60 24 60.0001ZM65.1429 34.2858C65.1434 37.3913 64.3003 40.4387 62.7037 43.1023C61.1071 45.766 58.8169 47.9459 56.0777 49.4092C53.8678 47.3989 50.9875 46.2851 48 46.2858C49.5759 46.2858 51.1363 45.9754 52.5922 45.3723C54.0481 44.7693 55.371 43.8854 56.4853 42.7711C57.5996 41.6568 58.4835 40.3339 59.0866 38.878C59.6896 37.4221 60 35.8616 60 34.2858C60 32.7099 59.6896 31.1495 59.0866 29.6936C58.4835 28.2377 57.5996 26.9148 56.4853 25.8005C55.371 24.6862 54.0481 23.8023 52.5922 23.1992C51.1363 22.5962 49.5759 22.2858 48 22.2858C44.8174 22.2858 41.7652 23.5501 39.5147 25.8005C37.2643 28.0509 36 31.1032 36 34.2858C36 37.4684 37.2643 40.5206 39.5147 42.7711C41.7652 45.0215 44.8174 46.2858 48 46.2858C44.8869 46.2858 42.0549 47.4721 39.9257 49.4126C37.188 47.9504 34.8985 45.7724 33.3017 43.1109C31.9422 40.8459 31.1245 38.2974 30.9125 35.6642C30.7004 33.031 31.0998 30.3845 32.0795 27.9311C33.0591 25.4778 34.5925 23.284 36.5599 21.5211C38.5273 19.7582 40.8755 18.4738 43.4213 17.7683C45.967 17.0627 48.6414 16.955 51.2356 17.4536C53.8298 17.9522 56.2737 19.0436 58.3765 20.6426C60.4793 22.2416 62.1841 24.305 63.3578 26.6716C64.5316 29.0382 65.1425 31.6441 65.1429 34.2858Z" fill="#666666"/>
</svg>
