<svg width="39" height="39" viewBox="0 0 39 39" fill="none" xmlns="http://www.w3.org/2000/svg">
<path fill-rule="evenodd" clip-rule="evenodd" d="M19.0887 33.4053C20.9688 33.4053 22.8305 33.035 24.5674 32.3155C26.3044 31.596 27.8826 30.5415 29.212 29.2121C30.5414 27.8826 31.596 26.3044 32.3155 24.5674C33.0349 22.8305 33.4052 20.9688 33.4052 19.0887C33.4052 17.2087 33.0349 15.347 32.3155 13.61C31.596 11.8731 30.5414 10.2948 29.212 8.96543C27.8826 7.63602 26.3044 6.58147 24.5674 5.862C22.8305 5.14252 20.9688 4.77222 19.0887 4.77222C15.2917 4.77222 11.6503 6.28056 8.9654 8.96543C6.28053 11.6503 4.77219 15.2918 4.77219 19.0887C4.77219 22.8857 6.28053 26.5272 8.9654 29.2121C11.6503 31.8969 15.2917 33.4053 19.0887 33.4053ZM18.7197 24.879L26.6733 15.3346L24.2299 13.2985L17.3898 21.5051L13.8505 17.9641L11.6012 20.2134L16.3733 24.9856L17.6046 26.2168L18.7197 24.879Z" fill="#FA6B91"/>
</svg>
