<svg width="96" height="96" viewBox="0 0 96 96" fill="none" xmlns="http://www.w3.org/2000/svg">
<path d="M47.25 51C47.25 51.5967 47.0129 52.169 46.591 52.591C46.169 53.0129 45.5967 53.25 45 53.25H27C26.4033 53.25 25.831 53.0129 25.409 52.591C24.9871 52.169 24.75 51.5967 24.75 51C24.75 50.4033 24.9871 49.831 25.409 49.409C25.831 48.9871 26.4033 48.75 27 48.75H45C45.5967 48.75 46.169 48.9871 46.591 49.409C47.0129 49.831 47.25 50.4033 47.25 51ZM45 36.75H27C26.4033 36.75 25.831 36.9871 25.409 37.409C24.9871 37.831 24.75 38.4033 24.75 39C24.75 39.5967 24.9871 40.169 25.409 40.591C25.831 41.0129 26.4033 41.25 27 41.25H45C45.5967 41.25 46.169 41.0129 46.591 40.591C47.0129 40.169 47.25 39.5967 47.25 39C47.25 38.4033 47.0129 37.831 46.591 37.409C46.169 36.9871 45.5967 36.75 45 36.75ZM86.25 60.2325V84C86.2509 84.3954 86.1476 84.784 85.9505 85.1268C85.7534 85.4696 85.4695 85.7544 85.1273 85.9525C84.7851 86.1505 84.3967 86.255 84.0013 86.2552C83.6059 86.2554 83.2174 86.1515 82.875 85.9538L73.5 80.5912L64.125 85.9538C63.7826 86.1515 63.3941 86.2554 62.9987 86.2552C62.6033 86.255 62.2149 86.1505 61.8727 85.9525C61.5305 85.7544 61.2466 85.4696 61.0495 85.1268C60.8524 84.784 60.7491 84.3954 60.75 84V74.25H15C13.6076 74.25 12.2723 73.6969 11.2877 72.7123C10.3031 71.7277 9.75 70.3924 9.75 69V21C9.75 19.6076 10.3031 18.2723 11.2877 17.2877C12.2723 16.3031 13.6076 15.75 15 15.75H81C82.3924 15.75 83.7277 16.3031 84.7123 17.2877C85.6969 18.2723 86.25 19.6076 86.25 21V32.7675C88.1421 34.5197 89.6517 36.644 90.6841 39.0071C91.7165 41.3702 92.2495 43.9212 92.2495 46.5C92.2495 49.0788 91.7165 51.6298 90.6841 53.9929C89.6517 56.356 88.1421 58.4803 86.25 60.2325ZM73.5 32.25C70.6816 32.25 67.9265 33.0857 65.5831 34.6516C63.2397 36.2174 61.4133 38.4429 60.3347 41.0468C59.2562 43.6506 58.974 46.5158 59.5238 49.28C60.0737 52.0443 61.4308 54.5834 63.4237 56.5763C65.4166 58.5692 67.9557 59.9263 70.72 60.4762C73.4842 61.026 76.3494 60.7438 78.9532 59.6653C81.5571 58.5867 83.7826 56.7603 85.3484 54.4169C86.9143 52.0735 87.75 49.3184 87.75 46.5C87.75 42.7207 86.2487 39.0961 83.5763 36.4237C80.9039 33.7513 77.2793 32.25 73.5 32.25ZM60.75 69.75V60.2325C57.4669 57.1685 55.3925 53.0279 54.9041 48.5638C54.4157 44.0997 55.5457 39.6085 58.0887 35.9071C60.6317 32.2057 64.4186 29.54 68.7609 28.3947C73.1032 27.2494 77.7123 27.7006 81.75 29.6663V21C81.75 20.8011 81.671 20.6103 81.5303 20.4697C81.3897 20.329 81.1989 20.25 81 20.25H15C14.8011 20.25 14.6103 20.329 14.4697 20.4697C14.329 20.6103 14.25 20.8011 14.25 21V69C14.25 69.1989 14.329 69.3897 14.4697 69.5303C14.6103 69.671 14.8011 69.75 15 69.75H60.75ZM81.75 63.3337C79.1826 64.5946 76.3603 65.2501 73.5 65.2501C70.6397 65.2501 67.8174 64.5946 65.25 63.3337V80.1225L72.375 76.0462C72.717 75.8488 73.105 75.7448 73.5 75.7448C73.895 75.7448 74.283 75.8488 74.625 76.0462L81.75 80.1225V63.3337Z" fill="#666666"/>
</svg>
