<svg width="64" height="64" viewBox="0 0 64 64" fill="none" xmlns="http://www.w3.org/2000/svg">
<path d="M26.8 28.2853L7.94664 47.1387C7.45077 47.634 7.05739 48.2222 6.78899 48.8696C6.52059 49.5171 6.38245 50.2111 6.38245 50.912C6.38245 51.6129 6.52059 52.3069 6.78899 52.9543C7.05739 53.6018 7.45077 54.19 7.94664 54.6853C8.94679 55.6852 10.3031 56.2469 11.7173 56.2469C13.1315 56.2469 14.4878 55.6852 15.488 54.6853L34.3413 35.8267M45.848 36.8L56.1893 47.1413C57.1892 48.1415 57.7508 49.4978 57.7508 50.912C57.7508 52.3262 57.1892 53.6825 56.1893 54.6827C55.1892 55.6825 53.8329 56.2442 52.4186 56.2442C51.0044 56.2442 49.6481 55.6825 48.648 54.6827L32.0906 38.128M17.9546 15.744L12.2933 17.6267L6.63998 8.19999L10.4106 4.42932L19.84 10.0853L17.9546 15.744ZM17.9546 15.744L25.5013 23.2907" stroke="#D5195F" stroke-width="2" stroke-linecap="round" stroke-linejoin="round"/>
<path d="M26.7999 28.2853C24.5493 22.544 24.9893 15.0106 29.6293 10.3706C34.2693 5.73063 42.8293 4.71463 47.5413 7.54397L39.4346 15.6506L38.6799 23.9466L46.9759 23.1946L55.0826 15.0853C57.9146 19.8 56.8959 28.36 52.2559 32.9973C47.6159 37.6373 40.0853 38.0773 34.3439 35.8266" stroke="#D5195F" stroke-width="2" stroke-linecap="round" stroke-linejoin="round"/>
</svg>
