<svg width="96" height="96" viewBox="0 0 96 96" fill="none" xmlns="http://www.w3.org/2000/svg">
<path d="M47.948 82C47.3773 82 46.9013 81.8094 46.52 81.428C46.1386 81.0467 45.9466 80.5707 45.944 80V73.86C42.792 73.4494 40.0693 72.436 37.776 70.82C35.4826 69.2067 33.6626 66.9774 32.316 64.132C32.1053 63.66 32.1133 63.1507 32.34 62.604C32.5666 62.0574 32.94 61.6787 33.46 61.468C33.932 61.2734 34.4386 61.2774 34.98 61.48C35.5213 61.6827 35.9026 62.028 36.124 62.516C37.308 64.9267 38.856 66.776 40.768 68.064C42.6826 69.3547 45.1893 70 48.288 70C51.328 70 54.1053 69.2427 56.62 67.728C59.1346 66.2134 60.392 63.7707 60.392 60.4C60.392 57.5547 59.4666 55.2694 57.616 53.544C55.7626 51.8187 52.2986 50.14 47.224 48.508C42.0533 46.8627 38.4146 44.9827 36.308 42.868C34.2013 40.7507 33.148 37.9947 33.148 34.6C33.148 30.8827 34.5733 27.9134 37.424 25.692C40.2746 23.4734 43.1146 22.2734 45.944 22.092V16C45.944 15.432 46.136 14.956 46.52 14.572C46.904 14.188 47.3786 13.9974 47.944 14C48.5093 14.0027 48.9853 14.1934 49.372 14.572C49.7586 14.9507 49.9493 15.4267 49.944 16V22.092C52.3253 22.34 54.436 22.952 56.276 23.928C58.116 24.904 59.688 26.292 60.992 28.092C61.2853 28.548 61.364 29.028 61.228 29.532C61.092 30.036 60.7653 30.4174 60.248 30.676C59.776 30.924 59.2826 30.98 58.768 30.844C58.2533 30.708 57.7946 30.404 57.392 29.932C56.3706 28.6894 55.1226 27.6894 53.648 26.932C52.1733 26.1774 50.3386 25.8 48.144 25.8C45.0586 25.8 42.4546 26.6174 40.332 28.252C38.2093 29.884 37.148 32 37.148 34.6C37.148 37.056 38.0186 39.0454 39.76 40.568C41.504 42.0934 44.9973 43.684 50.24 45.34C55.0933 46.876 58.6666 48.8507 60.96 51.264C63.248 53.6774 64.392 56.7067 64.392 60.352C64.392 64.368 62.9786 67.5587 60.152 69.924C57.3253 72.2894 53.9226 73.6174 49.944 73.908V80C49.944 80.5707 49.7533 81.0467 49.372 81.428C48.9906 81.8094 48.5146 82 47.944 82" fill="#666666"/>
</svg>
