<svg width="64" height="64" viewBox="0 0 64 64" fill="none" xmlns="http://www.w3.org/2000/svg">
<path d="M16 22C16 17.7566 17.6857 13.6869 20.6863 10.6863C23.6869 7.68575 27.7565 6.00004 32 6.00004C36.2435 6.00004 40.3131 7.68575 43.3137 10.6863C46.3143 13.6869 48 17.7566 48 22C48 22.2653 48.1054 22.5196 48.2929 22.7071C48.4804 22.8947 48.7348 23 49 23C49.2652 23 49.5196 22.8947 49.7071 22.7071C49.8946 22.5196 50 22.2653 50 22C49.9995 18.5966 49.0341 15.2631 47.2158 12.3862C45.3975 9.50918 42.8008 7.20667 39.7269 5.74568C36.6531 4.28469 33.228 3.72509 29.849 4.13181C26.4699 4.53852 23.2755 5.89487 20.6361 8.04354C17.9967 10.1922 16.0205 13.0451 14.9369 16.2714C13.8532 19.4977 13.7064 22.965 14.5134 26.2714C15.3205 29.5777 17.0484 32.5874 19.4968 34.9515C21.9451 37.3156 25.0135 38.9371 28.346 39.628C28.7398 40.5112 29.4402 41.2218 30.3176 41.6284C31.195 42.0349 32.19 42.1098 33.1184 41.8393C34.0468 41.5687 34.8457 40.971 35.3674 40.1568C35.889 39.3425 36.098 38.3669 35.9557 37.4104C35.8134 36.4539 35.3294 35.5814 34.5934 34.9542C33.8573 34.3271 32.9189 33.9879 31.952 33.9993C30.9851 34.0107 30.055 34.372 29.3339 35.0164C28.6129 35.6607 28.1497 36.5445 28.03 37.504C24.5879 36.6224 21.5373 34.6201 19.359 31.8129C17.1808 29.0056 15.999 25.5532 16 22ZM32 12C29.3478 12 26.8043 13.0536 24.9289 14.929C23.0536 16.8043 22 19.3479 22 22C22 24.6522 23.0536 27.1957 24.9289 29.0711C26.8043 30.9465 29.3478 32 32 32C30.546 32 29.214 32.518 28.174 33.378C25.4758 32.4707 23.1881 30.6336 21.7194 28.1951C20.2507 25.7566 19.6968 22.8753 20.1565 20.066C20.6162 17.2567 22.0597 14.7024 24.229 12.8592C26.3984 11.0159 29.1523 10.004 31.999 10.004C34.8457 10.004 37.5996 11.0159 39.769 12.8592C41.9383 14.7024 43.3818 17.2567 43.8415 20.066C44.3012 22.8753 43.7473 25.7566 42.2786 28.1951C40.8099 30.6336 38.5222 32.4707 35.824 33.378C34.7485 32.4878 33.3962 32.0005 32 32C34.6522 32 37.1957 30.9465 39.0711 29.0711C40.9464 27.1957 42 24.6522 42 22C42 19.3479 40.9464 16.8043 39.0711 14.929C37.1957 13.0536 34.6522 12 32 12ZM49 38H38C38 37.3 37.88 36.626 37.66 36H49C50.8565 36 52.637 36.7375 53.9497 38.0503C55.2625 39.363 56 41.1435 56 43V44.334C56 48.634 50.468 60 32 60C13.532 60 8 48.632 8 44.334V43C8 41.1435 8.7375 39.363 10.0503 38.0503C11.363 36.7375 13.1435 36 15 36H17.718C18.4273 36.724 19.1873 37.3907 19.998 38H15C13.6739 38 12.4021 38.5268 11.4645 39.4645C10.5268 40.4022 10 41.674 10 43V44.334C10 47.368 14.468 58 32 58C49.532 58 54 47.368 54 44.334V43C54 41.674 53.4732 40.4022 52.5355 39.4645C51.5979 38.5268 50.3261 38 49 38Z" fill="#D5195F"/>
</svg>
