<svg width="198" height="48" viewBox="0 0 198 48" fill="none" xmlns="http://www.w3.org/2000/svg">
<g clip-path="url(#clip0_7_388)">
<path d="M126.072 47.891C123.66 47.891 121.703 45.9338 121.703 43.5224V22.1109C121.703 8.78259 131.489 0 143.514 0H145.975C148.387 0 150.344 1.95724 150.344 4.36859C150.344 6.77994 148.387 8.73718 145.975 8.73718H143.514C136.307 8.73718 130.44 14.3273 130.44 23.0872V43.5224C130.44 45.9338 128.483 47.891 126.072 47.891Z" fill="white"/>
<path d="M173.495 47.9682C160.271 47.9682 149.508 37.2102 149.508 23.9818C149.508 21.5705 151.466 19.6132 153.877 19.6132C156.288 19.6132 158.246 21.5705 158.246 23.9818C158.246 32.3875 165.085 39.2265 173.49 39.2265C181.896 39.2265 188.735 32.3875 188.735 23.9818C188.735 15.5762 181.896 8.73718 173.49 8.73718C171.074 8.73718 169.122 6.77994 169.122 4.36859C169.122 1.95724 171.079 0 173.495 0C186.714 0 197.468 10.7489 197.481 23.9637V24.0045C197.472 37.2193 186.714 47.9682 173.495 47.9682Z" fill="white"/>
<path d="M164.231 10.1223C164.231 12.6608 162.174 14.7179 159.635 14.7179C157.097 14.7179 155.04 12.6608 155.04 10.1223C155.04 7.58375 157.097 5.52661 159.635 5.52661C162.174 5.52661 164.231 7.58375 164.231 10.1223Z" fill="#F3922E"/>
<path d="M34.1083 38.6321C33.6815 39.4585 32.5008 39.4585 32.0739 38.6321L17.5967 10.5677C14.813 5.31815 10.6306 1.64435 5.72613 0.191184C3.48734 -0.476366 1.0442 0.672547 0.26312 2.87501C-0.586076 5.27728 0.685448 7.48882 3.16492 8.54237C5.71251 9.6277 7.73332 10.9128 9.81771 14.5367L24.4947 42.7509C28.114 49.7079 38.0682 49.7079 41.6875 42.7509L56.3645 14.5367C58.4489 10.9174 60.4698 9.6277 63.0173 8.54237C65.4968 7.48428 66.7729 5.27728 65.9191 2.87501C65.1426 0.672547 62.6949 -0.476366 60.4561 0.186643C55.5562 1.64435 51.3693 5.31361 48.5855 10.5632L34.1083 38.6275V38.6321Z" fill="white"/>
<path d="M110.963 35.1758C109.405 33.3321 106.649 33.1005 104.805 34.6581C101.263 37.6507 97.326 39.5126 90.7867 39.231C84.1839 38.9449 78.6709 35.3438 76.3686 29.8626H95.0736C105.872 29.8626 111.422 24.1135 111.422 15.5625C111.422 7.01154 105.387 0 90.4598 0C77.2359 0 66.4734 10.758 66.4734 23.9864C66.4734 37.2148 76.7137 47.4324 90.3372 47.9728C98.988 48.3179 105.305 45.6795 110.445 41.3381C112.289 39.7805 112.521 37.024 110.963 35.1803M90.4598 8.73718C100.26 8.46017 102.794 12.6834 102.794 15.667C102.794 19.0774 100.914 21.1209 95.0736 21.1209H75.4876C76.8363 14.123 83.0395 8.94607 90.4598 8.73718Z" fill="white"/>
</g>
<defs>
<clipPath id="clip0_7_388">
<rect width="197.481" height="48" fill="white"/>
</clipPath>
</defs>
</svg>
