<svg width="160" height="48" viewBox="0 0 160 48" xmlns="http://www.w3.org/2000/svg" role="img" aria-label="Vero">
  <defs>
    <linearGradient id="g" x1="0%" y1="0%" x2="100%" y2="0%">
      <stop offset="0%" stop-color="#D5306D"/>
      <stop offset="100%" stop-color="#F39F3F"/>
    </linearGradient>
  </defs>
  <rect width="160" height="48" rx="16" fill="#fff" opacity="0"/>
  <path d="M20 34L10 12h6l5 12 5-12h6l-10 22h-2zm24.5-10c0 6.5-4.2 10.5-9.8 10.5S25 30.5 25 24s4.2-10.5 9.7-10.5S44.5 17.5 44.5 24zm-5.4 0c0-3.3-2-5.5-4.3-5.5s-4.3 2.2-4.3 5.5c0 3.4 2 5.6 4.3 5.6s4.3-2.2 4.3-5.6zM49 12h5v13.4L64 12h6v23h-5V21.4L54 35h-5V12zm28-.5c6.3 0 10.8 4.5 10.8 12.5 0 8-4.5 12.5-10.8 12.5s-10.8-4.5-10.8-12.5c0-8 4.5-12.5 10.8-12.5zm0 5c-3.3 0-5.6 3-5.6 7.5 0 4.5 2.3 7.5 5.6 7.5s5.6-3 5.6-7.5c0-4.5-2.3-7.5-5.6-7.5z" fill="url(#g)"/>
</svg>
